<?xml version="1.0" standalone="no"?>
<!DOCTYPE svg PUBLIC "-//W3C//DTD SVG 20010904//EN"
 "http://www.w3.org/TR/2001/REC-SVG-20010904/DTD/svg10.dtd">
<svg version="1.0" xmlns="http://www.w3.org/2000/svg"
 width="2560.000000pt" height="1440.000000pt" viewBox="0 0 2560.000000 1440.000000"
 preserveAspectRatio="xMidYMid meet">

<g transform="translate(0.000000,1440.000000) scale(0.100000,-0.100000)"
fill="#000000" stroke="none">
<path d="M467 14360 l-15 -40 -198 -2 c-174 -3 -199 -5 -202 -19 -2 -12 43
-49 147 -120 82 -57 154 -112 160 -122 9 -14 -1 -53 -49 -196 -33 -98 -60
-186 -60 -195 0 -26 35 -19 78 17 54 44 199 148 244 176 l37 22 88 -69 c48
-37 102 -77 118 -87 17 -11 47 -34 68 -52 83 -73 87 -25 13 182 -25 72 -47
148 -48 169 -3 43 -2 45 221 196 62 42 81 60 79 75 -3 19 -12 20 -198 23 -183
2 -196 4 -217 24 -12 12 -25 29 -29 40 -5 16 -17 18 -113 18 l-108 0 -16 -40z"/>
<path d="M4780 14373 c-6 -15 -13 -34 -15 -40 -3 -10 -56 -13 -220 -13 -122 0
-215 -4 -215 -9 0 -9 55 -52 142 -111 139 -95 198 -143 198 -161 0 -20 -26
-107 -87 -287 -19 -57 -32 -106 -29 -109 12 -12 58 10 113 55 71 59 234 172
248 172 6 0 42 -24 81 -52 212 -156 244 -178 258 -178 9 0 16 2 16 5 0 14 -34
127 -74 247 -25 75 -46 142 -46 149 0 15 2 16 178 140 98 70 142 106 140 118
-3 14 -30 17 -213 22 -116 3 -211 6 -212 7 -1 1 -6 17 -11 35 l-8 32 -117 3
-117 3 -10 -28z"/>
<path d="M20508 14360 l-17 -40 -216 0 c-169 0 -216 -3 -213 -12 6 -18 94 -85
221 -170 31 -21 70 -49 86 -64 l29 -26 -20 -66 c-11 -37 -23 -80 -28 -97 -4
-16 -22 -68 -40 -115 -18 -47 -34 -97 -37 -112 -9 -48 -15 -51 233 128 55 39
108 74 119 77 22 7 36 -1 136 -76 35 -27 74 -56 87 -65 13 -9 46 -34 74 -54
48 -37 78 -48 78 -29 0 5 -21 67 -46 137 -25 71 -50 143 -54 159 -5 17 -14 47
-20 67 -14 48 -1 66 94 131 160 108 221 154 221 168 0 12 -36 14 -208 17
l-207 2 -16 40 -16 40 -112 0 -111 0 -17 -40z"/>
<path d="M25075 14363 c-4 -15 -10 -37 -15 -48 -5 -11 -11 -31 -13 -45 -7 -33
-30 -114 -50 -170 -9 -25 -19 -56 -21 -70 -3 -14 -15 -35 -26 -48 -20 -22 -26
-22 -216 -21 -130 1 -199 -2 -206 -9 -12 -12 21 -44 93 -92 71 -47 174 -123
202 -148 26 -25 36 -69 20 -86 -4 -4 -13 -26 -19 -49 -7 -23 -28 -88 -48 -145
-20 -56 -36 -111 -36 -122 0 -27 41 -27 65 0 10 11 57 46 104 79 47 32 106 75
131 95 54 42 34 52 282 -136 140 -106 143 -91 42 208 -19 56 -34 110 -34 121
0 23 19 43 81 86 180 123 188 131 189 165 l0 32 -87 1 c-49 1 -126 1 -173 0
-89 -1 -101 2 -117 34 -12 22 -58 163 -98 297 -28 95 -41 114 -50 71z"/>
<path d="M2026 12930 c-6 -19 -72 -237 -94 -310 -31 -107 -15 -100 -249 -100
-186 0 -204 -2 -201 -17 3 -15 123 -109 258 -201 67 -45 71 -65 37 -160 -13
-37 -36 -107 -51 -157 -16 -49 -32 -101 -37 -114 -15 -38 5 -50 38 -23 16 12
53 40 83 61 30 22 89 67 130 100 80 65 100 71 141 43 54 -35 165 -117 189
-140 29 -28 120 -76 127 -68 3 3 1 18 -5 33 -6 15 -18 55 -27 88 -10 33 -33
111 -53 173 -19 61 -33 114 -31 115 2 2 36 26 74 53 176 123 265 192 265 204
0 6 -82 10 -207 10 -115 0 -212 4 -218 8 -16 11 -45 80 -45 105 0 13 -4 27 -9
33 -4 5 -25 62 -46 126 -40 125 -60 165 -69 138z"/>
<path d="M8042 12893 c-79 -267 -109 -355 -125 -365 -7 -4 -103 -8 -214 -8
-113 0 -203 -4 -203 -9 0 -13 51 -55 199 -160 79 -58 131 -102 131 -112 0 -17
-25 -107 -40 -144 -41 -98 -81 -248 -70 -259 8 -8 257 171 294 213 37 42 61
32 220 -89 132 -100 192 -138 202 -127 3 3 -3 27 -14 54 -25 64 -40 107 -58
168 -8 28 -24 81 -36 119 -14 45 -18 73 -12 83 5 7 43 37 85 66 161 110 237
167 243 182 5 13 -21 15 -204 15 -233 0 -227 -2 -249 71 -8 24 -26 82 -42 129
-73 223 -86 243 -107 173z"/>
<path d="M23867 12442 c-9 -10 -17 -28 -17 -40 0 -12 -4 -31 -9 -44 -5 -13
-28 -84 -52 -158 -23 -74 -47 -141 -52 -147 -7 -10 -63 -13 -218 -13 -114 0
-210 -4 -213 -8 -5 -8 125 -111 221 -176 23 -15 59 -43 80 -61 l38 -33 -17
-58 c-9 -33 -35 -111 -57 -174 -22 -63 -41 -125 -41 -137 0 -36 36 -29 94 18
106 84 242 179 256 179 8 0 84 -52 169 -115 85 -63 160 -115 168 -115 23 0 15
42 -42 211 -30 90 -55 174 -55 186 0 15 15 32 48 55 26 18 65 46 87 63 22 16
77 57 123 90 45 33 82 63 82 67 0 4 -96 8 -213 8 l-214 0 -15 33 c-28 57 -70
184 -109 327 -16 58 -22 64 -42 42z"/>
<path d="M17646 12198 c-63 -208 -78 -254 -91 -285 l-15 -33 -210 0 c-239 0
-245 -2 -153 -66 31 -21 61 -43 67 -49 6 -6 55 -42 109 -79 89 -64 97 -72 97
-102 0 -18 -4 -35 -9 -38 -5 -3 -12 -23 -16 -43 -4 -21 -10 -42 -14 -48 -4 -5
-25 -63 -46 -128 -50 -152 -44 -159 67 -75 46 34 97 72 112 83 16 11 50 37 76
58 26 20 53 37 60 37 19 0 73 -35 185 -120 55 -42 122 -88 148 -103 l48 -28
-7 28 c-4 15 -10 33 -13 38 -4 6 -15 37 -26 70 -10 33 -22 65 -26 70 -4 6 -10
26 -13 45 -4 19 -11 44 -15 55 -43 106 -41 127 17 166 26 18 90 64 142 103 52
40 108 79 123 89 15 10 25 22 22 27 -4 6 -93 10 -216 10 l-209 0 -19 43 c-20
43 -54 143 -86 252 -20 68 -42 115 -53 115 -5 0 -21 -42 -36 -92z"/>
<path d="M4897 10524 c-8 -16 -22 -56 -32 -89 -10 -33 -31 -98 -47 -145 -17
-47 -35 -100 -41 -117 l-10 -33 -211 -2 c-243 -3 -253 -8 -158 -71 129 -86
267 -194 270 -212 4 -16 -49 -193 -84 -285 -7 -19 -16 -52 -20 -72 -5 -33 -4
-38 13 -38 16 0 59 23 73 40 7 7 141 107 208 154 29 20 58 34 65 30 16 -9 161
-116 247 -181 38 -29 73 -53 79 -53 18 0 22 20 12 53 -6 17 -29 88 -51 157
-23 69 -45 133 -50 142 -23 42 -12 66 51 110 206 144 269 193 266 208 -2 13
-34 15 -209 18 -163 2 -208 5 -218 17 -10 12 -17 34 -50 150 -29 103 -70 229
-79 238 -6 6 -14 -1 -24 -19z"/>
<path d="M822 10307 c-11 -12 -107 -306 -119 -364 -3 -11 -15 -24 -26 -27 -12
-3 -108 -6 -214 -6 -109 0 -194 -4 -198 -9 -7 -12 -7 -12 150 -126 72 -52 143
-105 159 -118 l29 -22 -51 -155 c-29 -85 -56 -169 -62 -186 -23 -71 -1 -84 59
-34 84 71 266 200 282 200 9 0 80 -47 158 -105 78 -58 150 -105 161 -105 17 0
20 7 20 40 0 22 -4 48 -9 58 -10 19 -81 236 -86 263 -5 25 12 43 101 106 198
141 244 175 244 184 0 10 -15 11 -251 9 l-177 -1 -21 29 c-12 17 -21 35 -21
42 0 13 -24 91 -52 170 -10 30 -26 78 -35 105 -18 60 -26 70 -41 52z"/>
<path d="M25292 9943 c-5 -10 -17 -45 -26 -78 -45 -158 -69 -233 -84 -265
l-17 -35 -212 -5 c-116 -3 -214 -8 -217 -11 -7 -7 59 -59 214 -169 30 -21 69
-49 87 -62 53 -38 55 -18 -35 -288 -13 -41 -31 -87 -38 -102 -32 -63 -6 -76
57 -28 261 199 279 211 299 205 11 -4 39 -21 63 -38 64 -49 206 -147 212 -147
10 0 5 226 -6 237 -5 5 -16 37 -24 69 -14 58 -14 59 10 77 24 18 25 23 25 137
l0 119 -71 3 c-81 3 -85 8 -115 113 -9 33 -29 98 -44 145 -46 140 -59 160 -78
123z"/>
<path d="M20608 9902 c-23 -43 -43 -100 -94 -267 -10 -33 -23 -63 -28 -67 -6
-4 -107 -8 -223 -8 -183 0 -213 -2 -213 -15 0 -8 4 -15 8 -15 5 0 29 -15 53
-33 24 -19 93 -69 152 -112 60 -44 114 -87 121 -97 11 -15 9 -29 -10 -86 -13
-37 -24 -76 -24 -88 0 -11 -3 -24 -6 -27 -9 -9 -64 -165 -71 -199 -6 -31 7
-37 28 -12 8 9 32 28 54 42 40 25 186 132 195 143 3 4 23 16 46 27 48 24 41
27 183 -78 55 -41 120 -88 143 -105 22 -16 47 -34 54 -40 26 -19 26 6 -1 87
-15 46 -30 90 -34 98 -4 8 -16 42 -26 75 -9 33 -24 79 -32 102 -9 23 -13 48
-10 56 3 7 82 69 176 136 94 68 168 127 165 132 -3 5 -101 9 -218 9 l-214 0
-16 25 c-9 13 -16 32 -16 40 0 9 -11 49 -24 88 -13 40 -34 105 -46 144 -30 98
-41 105 -72 45z"/>
<path d="M2020 8146 c0 -7 -15 -60 -34 -117 -18 -57 -41 -131 -50 -164 -24
-84 -35 -103 -63 -110 -13 -3 -110 -5 -214 -4 -105 0 -193 -2 -197 -6 -4 -4 4
-15 18 -24 21 -13 99 -71 288 -208 39 -29 41 -53 8 -143 -19 -51 -60 -181 -92
-287 -8 -27 19 -22 64 12 173 133 276 205 292 205 17 0 158 -95 247 -167 22
-19 55 -38 72 -43 l32 -9 -6 37 c-4 20 -13 57 -21 82 -7 25 -25 83 -39 130
-14 47 -31 95 -37 108 -20 39 -23 36 210 206 67 48 122 92 122 97 0 12 -38 13
-240 10 -126 -2 -169 0 -182 11 -16 12 -54 109 -89 228 -7 25 -19 56 -26 70
-7 14 -13 34 -13 45 -1 37 -50 78 -50 41z"/>
<path d="M17665 7554 c-8 -20 -15 -42 -15 -50 0 -7 -4 -23 -10 -36 -5 -13 -23
-70 -40 -128 -49 -164 -47 -160 -89 -161 -20 -1 -112 0 -206 0 -93 1 -176 -2
-183 -7 -14 -9 3 -23 231 -191 72 -53 97 -77 97 -94 0 -22 -22 -93 -40 -132
-15 -32 -80 -236 -80 -251 0 -20 30 -17 54 5 41 37 281 214 297 218 8 2 44
-17 80 -43 35 -26 98 -73 139 -103 80 -60 132 -91 148 -91 6 0 -5 44 -24 98
-20 53 -40 113 -45 132 -5 19 -19 65 -31 102 -11 36 -18 73 -15 81 3 8 52 48
109 88 57 40 115 82 130 94 14 11 45 33 67 49 22 16 38 33 34 39 -3 5 -93 8
-220 5 -178 -2 -215 -1 -223 11 -5 8 -25 67 -46 130 -57 181 -86 261 -95 267
-5 2 -15 -12 -24 -32z"/>
<path d="M8039 7538 c-6 -24 -17 -61 -24 -83 -7 -22 -27 -86 -45 -142 -17 -56
-37 -109 -44 -119 -11 -15 -35 -16 -213 -15 -110 1 -207 -1 -216 -5 -17 -6 20
-37 199 -164 106 -76 134 -100 134 -115 0 -15 -25 -100 -53 -175 -10 -30 -23
-68 -28 -85 -4 -16 -14 -54 -23 -83 -12 -46 -13 -54 0 -59 8 -3 29 8 48 23 18
16 64 51 102 78 38 27 90 67 115 88 68 56 84 52 215 -45 144 -109 223 -161
231 -153 4 3 -3 30 -15 59 -12 29 -22 59 -22 68 0 8 -4 19 -9 24 -5 6 -16 37
-26 70 -10 33 -27 89 -38 124 -14 45 -17 69 -10 80 5 9 50 44 99 79 185 130
234 167 234 180 0 9 -50 12 -214 12 -161 0 -217 3 -223 13 -11 16 -62 169 -63
185 0 8 -12 44 -26 80 -14 37 -30 79 -36 95 -15 39 -36 33 -49 -15z"/>
<path d="M23540 7554 c-6 -14 -10 -32 -10 -40 0 -8 -9 -34 -20 -58 -10 -24
-29 -74 -41 -112 -35 -113 -51 -154 -63 -162 -6 -4 -104 -5 -218 -3 -170 2
-208 1 -208 -10 0 -13 42 -46 175 -141 115 -81 170 -127 168 -139 -2 -13 -67
-213 -83 -254 -5 -11 -15 -40 -23 -65 -8 -25 -18 -53 -22 -62 -18 -44 73 9
238 138 76 59 125 86 139 78 13 -7 208 -151 280 -206 37 -28 68 -37 68 -19 0
5 -25 83 -56 173 -63 185 -72 218 -67 235 2 6 61 51 130 100 69 48 145 105
169 125 l44 37 -30 6 c-16 3 -112 5 -215 3 -154 -2 -187 -1 -195 12 -10 16
-93 269 -112 343 -13 52 -33 61 -48 21z"/>
<path d="M1775 5923 c-74 -231 -105 -317 -117 -325 -7 -4 -81 -5 -163 -2 -83
4 -177 3 -210 -1 l-59 -7 35 -32 c19 -17 89 -70 155 -118 170 -124 167 -120
150 -166 -8 -20 -27 -77 -41 -127 -15 -49 -31 -99 -36 -110 -4 -11 -15 -44
-23 -72 -14 -50 -14 -53 3 -53 10 0 63 34 117 76 118 90 213 154 228 154 11 0
53 -30 231 -162 84 -63 125 -82 125 -58 0 11 -67 223 -81 255 -19 45 -39 111
-39 130 1 13 22 36 63 65 138 98 243 178 260 197 17 20 17 20 -20 26 -21 3
-108 3 -193 1 -85 -2 -166 -1 -180 2 -29 5 -34 16 -80 164 -18 58 -36 114 -40
125 -4 11 -14 42 -22 70 -9 27 -19 50 -25 52 -5 2 -22 -36 -38 -84z"/>
<path d="M4875 5423 c-63 -199 -77 -239 -91 -270 -8 -17 -14 -36 -14 -41 0
-18 -20 -19 -200 -15 -96 3 -192 1 -212 -4 l-38 -8 157 -115 c86 -63 167 -125
180 -137 l22 -21 -23 -69 c-13 -37 -38 -115 -56 -173 -18 -58 -36 -116 -42
-129 -5 -13 -6 -26 -3 -29 9 -9 67 23 131 74 102 81 210 154 227 154 9 0 51
-26 94 -58 256 -192 263 -196 263 -155 0 18 -96 309 -110 335 -15 27 -12 59 8
74 9 8 53 40 97 71 44 31 82 59 85 63 3 3 21 17 40 30 19 13 51 38 71 56 l37
32 -45 7 c-24 3 -115 6 -201 5 -86 -1 -165 -1 -174 -1 -23 1 -39 36 -77 166
-17 61 -35 119 -40 130 -4 11 -14 40 -22 64 -8 25 -19 46 -25 48 -6 2 -23 -35
-39 -84z"/>
<path d="M20607 5443 c-13 -27 -32 -75 -41 -108 -49 -170 -68 -225 -82 -233
-9 -5 -104 -7 -212 -5 -123 3 -203 0 -212 -6 -8 -5 -12 -12 -10 -14 3 -2 80
-58 172 -126 92 -67 170 -127 173 -132 4 -5 -5 -42 -18 -82 -13 -39 -32 -99
-42 -132 -10 -33 -21 -64 -25 -70 -4 -5 -10 -21 -12 -35 -3 -14 -13 -42 -22
-62 -15 -35 -15 -38 0 -38 9 0 28 9 42 21 15 11 88 65 162 119 141 104 169
115 206 83 45 -42 124 -103 189 -148 38 -27 76 -54 83 -62 14 -14 42 -18 42
-6 0 4 -29 93 -65 199 -36 106 -65 197 -65 202 0 16 33 48 80 77 25 16 61 40
80 55 19 15 70 53 114 85 66 50 76 60 60 66 -11 5 -93 8 -184 8 -262 0 -238
-4 -254 34 -8 17 -26 73 -41 122 -57 187 -75 235 -86 235 -5 0 -19 -21 -32
-47z"/>
<path d="M2025 3228 c-19 -51 -105 -325 -105 -336 0 -7 -7 -24 -16 -37 l-16
-25 -215 0 c-248 0 -241 5 -113 -88 223 -164 239 -177 240 -199 0 -12 -21 -84
-46 -160 -25 -76 -49 -154 -54 -173 -4 -19 -11 -43 -15 -52 -12 -29 23 -22 64
13 41 35 231 177 266 199 22 13 27 13 57 -4 33 -20 135 -94 197 -144 46 -37
81 -58 109 -67 27 -8 27 -16 -7 100 -10 33 -26 87 -35 120 -10 33 -21 69 -26
80 -4 11 -13 33 -19 48 -22 54 -35 40 189 202 52 38 108 80 123 94 l28 26
-222 5 -222 5 -35 105 c-38 113 -42 124 -65 185 -8 22 -21 55 -27 73 -14 37
-28 49 -35 30z"/>
<path d="M17666 2936 c-9 -21 -16 -47 -16 -57 0 -11 -4 -27 -10 -37 -5 -9 -23
-64 -40 -122 -18 -58 -36 -117 -42 -132 l-10 -28 -209 0 c-149 0 -210 -3 -215
-12 -9 -14 30 -47 196 -165 86 -61 126 -95 128 -110 2 -12 -24 -102 -57 -200
-34 -98 -61 -184 -61 -191 0 -25 33 -10 132 65 237 176 218 164 241 151 12 -6
74 -50 137 -97 182 -136 229 -163 217 -123 -13 40 -39 109 -52 138 -8 17 -21
55 -29 85 -8 30 -21 74 -30 99 -28 79 -28 79 112 181 206 150 221 162 216 171
-3 5 -97 9 -207 8 -111 -1 -208 -1 -214 -1 -22 1 -39 44 -112 277 -18 56 -38
110 -45 120 -13 17 -15 16 -30 -20z"/>
<path d="M8041 2918 c-7 -24 -19 -61 -26 -83 -7 -22 -25 -80 -40 -130 -15 -49
-33 -101 -40 -115 l-14 -25 -208 -3 c-114 -1 -211 -6 -216 -11 -9 -9 25 -38
177 -149 153 -111 156 -114 156 -132 0 -18 -26 -110 -41 -145 -12 -29 -66
-195 -73 -227 -5 -23 -3 -28 13 -28 11 0 22 4 25 9 4 5 52 42 108 82 56 40
118 87 138 105 19 17 42 33 50 36 22 8 64 -16 155 -87 112 -87 227 -165 237
-159 4 3 -2 24 -14 47 -11 23 -25 56 -29 72 -7 29 -23 77 -40 120 -4 11 -10
31 -13 45 -2 14 -13 52 -22 84 l-18 59 24 18 c14 10 59 43 100 73 191 139 220
162 220 174 0 9 -50 12 -215 12 l-216 0 -18 43 c-10 23 -26 69 -36 102 -24 80
-40 129 -64 195 -12 30 -21 56 -21 57 0 2 -6 3 -13 3 -8 0 -19 -19 -26 -42z"/>
<path d="M23693 2913 c-6 -16 -18 -55 -28 -88 -24 -82 -64 -204 -77 -237 l-10
-28 -209 0 c-141 0 -210 -4 -215 -11 -7 -12 16 -35 100 -94 242 -172 242 -172
212 -252 -8 -21 -21 -65 -31 -98 -16 -59 -29 -93 -46 -128 -15 -29 -23 -107
-11 -107 13 0 86 52 189 135 42 33 91 70 111 82 34 20 38 21 66 6 17 -9 45
-28 62 -42 67 -57 260 -191 276 -191 10 0 5 24 -17 80 -32 81 -65 176 -65 185
0 5 -12 41 -27 79 l-26 69 35 31 c19 17 98 76 176 131 78 55 141 106 142 113
0 9 -50 12 -218 12 l-218 0 -16 38 c-9 20 -28 80 -43 132 -37 130 -71 210 -90
210 -7 0 -17 -12 -22 -27z"/>
<path d="M4902 763 c-5 -10 -20 -52 -32 -93 -24 -81 -48 -153 -60 -185 -29
-74 -46 -111 -55 -117 -5 -4 -104 -8 -218 -8 -117 0 -207 -4 -205 -9 3 -9 145
-117 218 -166 25 -16 65 -45 88 -64 45 -36 48 -48 27 -103 -7 -17 9 -18 240
-18 l248 0 -6 36 c-4 20 -2 45 3 54 5 9 51 45 102 80 171 116 243 176 222 184
-9 3 -102 6 -207 6 -106 0 -197 4 -204 8 -11 7 -93 244 -123 355 -15 54 -25
65 -38 40z"/>
<path d="M20607 703 c-35 -77 -57 -142 -57 -175 0 -15 -4 -29 -9 -32 -5 -3
-12 -20 -15 -38 -3 -18 -15 -48 -26 -65 l-20 -33 -215 0 c-118 0 -215 -4 -215
-8 0 -8 162 -127 268 -198 82 -55 93 -76 67 -136 -7 -17 9 -18 248 -18 l254 0
-10 39 c-14 51 -12 52 138 159 177 126 207 150 195 157 -5 3 -102 6 -215 6
l-205 1 -20 25 c-11 14 -20 32 -20 40 0 8 -11 47 -24 86 -13 40 -36 111 -50
160 -15 48 -31 87 -35 87 -4 0 -19 -26 -34 -57z"/>
<path d="M25284 723 c-3 -16 -12 -50 -19 -78 -8 -27 -21 -77 -28 -110 -8 -33
-28 -85 -44 -115 l-29 -55 -204 -5 c-124 -3 -205 -9 -207 -15 -2 -6 22 -25 52
-43 30 -18 60 -41 68 -52 7 -10 25 -22 39 -25 14 -4 38 -20 52 -36 14 -16 32
-29 39 -29 7 0 28 -16 46 -34 31 -32 33 -38 28 -80 l-7 -46 250 0 250 0 -10
26 c-17 43 -12 70 15 84 24 13 25 16 25 127 l0 113 -64 0 c-75 0 -90 11 -106
73 -25 103 -65 225 -96 295 -18 39 -42 42 -50 5z"/>
</g>
</svg>
